/* XPM */
static char *barrel11700737075[] = {
/* columns rows colors chars-per-pixel */
"64 64 27 1 ",
"  c black",
". c #070707",
"X c #170F07",
"o c #1F170B",
"O c #131313",
"+ c #1B1B1B",
"@ c #232323",
"# c #272727",
"$ c #2F2F2F",
"% c #373737",
"& c gray23",
"* c #732B00",
"= c #434343",
"- c gray28",
"; c #4B4B4B",
": c gray31",
"> c gray34",
", c #5B5B5B",
"< c gray39",
"1 c #874307",
"2 c #9B5B13",
"3 c #AF7B1F",
"4 c #C39B2F",
"5 c #D7BB43",
"6 c #EBDB57",
"7 c #FFFF73",
"8 c white",
/* pixels */
"8888888888888888888888888888888888888888888888888888888888888888",
"8888888888888888888888888888888888888888888888888888888888888888",
"8888888888888888888888888888888888888888888888888888888888888888",
"8888888888888888888888888888888888888888888888888888888888888888",
"8888888888888888888888888888888888888888888888888888888888888888",
"8888888888888888888888888888888888888888888888888888888888888888",
"8888888888888888888888888888888888888888888888888888888888888888",
"8888888888888888888888888888888888888888888888888888888888888888",
"8888888888888888888888888888888888888888888888888888888888888888",
"8888888888888888888888888888888888888888888888888888888888888888",
"888888888888888888888888888888888888888888888888888888**88888888",
"8888888888888888888888888888888888888888888888888888***888888888",
"888888888888888888888888888888888888888888888888888***8888888888",
"888888888888888888888888888888888888888888*8888888***88888888888",
"88888888888888888888888888888888888888888*8888888**8888888888888",
"888888888888888888888888888888888888888*1*888888*888888888888888",
"8888888888888888888888888888888888888812188888888888888888888888",
"8888888888888888888888888888888888888*32*88888888*88888888888888",
"88888888888888888888888888888888888881**8888888*1888888888888888",
"8888888888888888888888888888888888*1888888888*12*888888888888888",
"88888888888888888888888888888888811*88**8888*22*8888888888888888",
"888888888888888888888888888888812338*12*8*1223188*88888888888888",
"888888888888888888888888888888123432231*223342*81888888888888888",
"8888888888888888888888888888*2334422331245343281*888888888888888",
"88888888888888888888888888*2234532343235534431*28888888888888888",
"888888888888888888888888*223466423432346534321218888888888888888",
"88888888888888888888888*22346544345234443453231*8188888888888888",
"8888888888888888888888822345434456422234553232*81888888888888888",
"8888888888888888888888*2343234457643344543221*888888888888888888",
"888888888888888888888*233234456764334443321*88888888888888888888",
"888888888888888888888111233457544334563221*888888888888888888888",
"88888888888888888888**323346765633457542112188888888888888888888",
"8888888888888888888*23434467776534566431231*88888888888888888888",
"888888888888888888812444567767755577543232*888888888888888888888",
"88888888888888888882234346776675457743212*8888888888888888888888",
"888888888888888888811122233323322333221**o8888888888888888888888",
"8888888888888888888$&$#$*111*11**11*** Xo@8888888888888888888888",
"8888888888888888888$&$#$&&&&>>=%#@oX Xooo+8888888888888888888888",
"888888888888888888+*1=%=>&&1221%&*11**X++*+888888888888888888888",
"888888888888888888+==$=12233443322333211**+888888888888888888888",
"888888888888888888O+$#=;;%*1111*$$***+ oo#+888888888888888888888",
"8888888888888888888O+@+@#@+@+ooXXX..X..o+@8888888888888888888888",
"8888888888888888888O+#####@#++ooXX. XXXXo@8888888888888888888888",
"8888888888888888888O+##$$$#$$##@@++++o Xo#8888888888888888888888",
"8888888888888888888O+#$$%$#$%%%$#@+@+o Xo@8888888888888888888888",
"8888888888888888888O+#$$&$$$%%%$#@+@+o .o@8888888888888888888888",
"888888888888888888+###$%&%$$%%%$#@+@+o .X++888888888888888888888",
"888888888888888888+$%&&&=-==&&&&&##+oX+++o+888888888888888888888",
"888888888888888888O#$&=-:>,<<,>:;==$#+#@.++888888888888888888888",
"8888888888888888888+@@$$%&&%$$$$$$#+oX++.+8888888888888888888888",
"8888888888888888888O+++@++@++ooXXX..X..ooo8888888888888888888888",
"8888888888888888888O+@#@###@+++++++++oXXo@8888888888888888888888",
"8888888888888888888O+@##$$$$##$$#@+@+o Xo@8888888888888888888888",
"8888888888888888888O+@#$$$%$$$%$#@+@+o Xo@8888888888888888888888",
"8888888888888888888O+@#%$$%$$$%$#@+@+o Xo+8888888888888888888888",
"888888888888888888+####%$%&%$%%&$##+oX+++o+888888888888888888888",
"888888888888888888+#$&=;:>:;=;==&%$$#+++o++888888888888888888888",
"888888888888888888oo##$$%%%%&$$#@@@+oX Xo@+888888888888888888888",
"8888888888888888888XXoooo++++ooXXX..X. Xo+8888888888888888888888",
"8888888888888888888X+OOOO+++++++@+++XX Xo+8888888888888888888888",
"8888888888888888888++@#@###########@+o Xo@8888888888888888888888",
"8888888888888888888o+@#@$$##$$%$#$#@+o X.+8888888888888888888888",
"8888888888888888888oo@#@#$##$$$$#$#@+o.o o8888888888888888888888",
"888888888888888888888oo+++@@@@@@+++    o888888888888888888888888"
};
