/* XPM */
static char *_adb5c7302c34efbf555e1d4ac4ace08vIU1KhNRrIgXzXfa[] = {
/* columns rows colors chars-per-pixel */
"32 96 5 1 ",
"  c None",
". c #1B3031",
"X c #304D48",
"o c #446B61",
"O c #5D8970",
/* pixels */
"................................",
"................................",
"..XXXXXXXXXXXXXXXXXXXXXXXXXXXXXX",
"..XXXXXXoooooXXooXoXooXooXXXXXXX",
"....XXXoXXooXoooooXooooXoXoXXXXX",
"................................",
"  ............................  ",
"   ..XXXXXoXooooXoXooXXoXXXXX   ",
"   ....XXXXXXXXXXXXXXXXXXXXXX   ",
"   ......................XXXX   ",
"     .....................X     ",
"      .......XXXXXX.......      ",
"      ...XXXXXXXXXXXXXXXXX      ",
"      ..XXXXXXoooooooooooo      ",
"      ..X.XXXXooOoooXooOOo      ",
"      ...XXXXXoOOooXooOoOo      ",
"      ...X.XXoXoOOooXooOOo      ",
"      ...XXXXoooOooooXoOoX      ",
"      ....XXXooOOooXooOOOo      ",
"      ...XXXXXoOoOooXoOOOo      ",
"      ...XXXXXXoOoooXXoOoX      ",
"      ..X.XXXoooOOoXoooOOo      ",
"      ..XXXXXXooOooXooOoOo      ",
"      ...XXXXXoOOOooXooOOo      ",
"      ..XX.XXoXoOoooXooOoX      ",
"      ...XXXXXooOooXoXoOOo      ",
"      ..XXXXXoooOOooXoooOo      ",
"      ..XXXXXooOOooXoooOOo      ",
"      ..X.XXXXoOoOooXoOOOo      ",
"      ...XXXXoooOoooXooOoX      ",
"      ...XXXXoXoOooXooOOOo      ",
"      ....XXXXooOOooXooOOo      ",
"      ....XXXXoOoOoooXooOo      ",
"      ...XXXXoooOOooXooOOo      ",
"      ...XXXoXoOOooXXoOOoX      ",
"      ....XXXooOoOoooXoOOo      ",
"      ...XXXXXooOoooXooOOo      ",
"      ...XXXXXoOOoooXoOoOo      ",
"      ...XXXXXooOOooXoooOo      ",
"      ....XXXoXoOooXoXoOOo      ",
"      ..X.XXXoooOOooXooOOo      ",
"      ..XXXXXooOOooXooOOoX      ",
"      ...XXXXXooOooooXoOOo      ",
"      ..X.XXXooooOooXooOOo      ",
"      ...XXXXXooOOooXoOoOo      ",
"      ..XXXXXXoOOooXoooOOo      ",
"      ..XXXXXoooOooooXoOOo      ",
"      ..X.XXoooOOooXoooOoX      ",
"      ...XXXXoXoOOooXoOoOo      ",
"      ...XXXXXooOoooXoOOOo      ",
"      ....XXoXooOOooXooOOo      ",
"      ....XXXXoOOooXoooOOo      ",
"      ....XXXXoooOooXoOoOo      ",
"      ...XXXXooOOOoooXooOo      ",
"      ...XXXXoooOoooXooOOo      ",
"      ....XXXXoOooooXooOoX      ",
"      ...X.XXoooOOoooXooOo      ",
"      ...XXXXoXoOooXooOoOo      ",
"      ..X.XXXXooOoooXoooOo      ",
"      ...XXXXXoOOOooXooOOo      ",
"      ..XXXXXooOoooooXoOOo      ",
"      ..XXXXoXooOooXXoOOoX      ",
"      ..X.XXXooooOoooooOOo      ",
"      ...XXXXXooOOoXooOoOo      ",
"      ...XXXXXoOOoooXooOOo      ",
"      ....XXXoooOoooXXoOoX      ",
"      ..XXXXXooOOOoXooOOOo      ",
"      ...XXXXXooOoooXoOoOo      ",
"      ..XXXXXoXoooooXooOOo      ",
"      ..XXXXXXooOOoXoooOOo      ",
"      ...X.XXoooOooXooOoOo      ",
"      ..X.XXXooOoOoXoXoOOo      ",
"      ...XXXXooOOoooXoOOoX      ",
"      ....XXoXooOoooXooOOo      ",
"      ...XXXXXooOOoooXooOo      ",
"      ...XXXXXooOooXooooOo      ",
"      ...XXXXooOOooooooOOo      ",
"      ....XXXoooOoooXoooOo      ",
"      ....XXoXooOooXoXoOOo      ",
"      ....XXXooOoOooXoOoOo      ",
"      ...X.XXoooOooooXoOOo      ",
"      ....XXXXooOooXoooOoX      ",
"      ...XXXoXoOoOooXoOoOo      ",
"      ...XXXXXooOOoooXooOo      ",
"      ....XXXoooOooXoooOOo      ",
"     ....XXXXXoOooooooOOoXo     ",
"   ...XoOOOOOOOOOOOOOOOOOOOOO   ",
"   .XooooooooOoOOOOooOooooooo   ",
"   .XXXXoXXXXoXXXXXoXoXXXoXXX   ",
"  ..........................XX  ",
"...XoOOOOOOOOOOOOOOOOOOOOOOOOOOO",
".XooooOooooOOOOoOOOOOOOOooOooooO",
".XoooooooOOOoOOOoOOOOoOoOOoooooo",
".XoXoXooXoooooooooooooooooXooXoo",
".XXXXXXXXXXXXXXXXXXXXXXXXXXXXXXX",
"...............................X"
};
