/* XPM */
static char *ca8db9f4a8c94dde8ee0b2f61f76cb71h2VZEcUWVstCI3Oq[] = {
/* columns rows colors chars-per-pixel */
"64 64 7 1 ",
"  c None",
". c black",
"X c #352D3D",
"o c #4A4D4D",
"O c #6D7173",
"+ c #A48D43",
"@ c #96A0A3",
/* pixels */
"                                                                ",
"                                                                ",
"                                                                ",
"                                                                ",
"                                                                ",
"                                                                ",
"                                                                ",
"                                                                ",
"                                                                ",
"                                                                ",
"                                                                ",
"                        ..............                          ",
"                    ....XXXXXXXXXXXXXX....                      ",
"                  ..XXXXooooooooooooooXXXX..                    ",
"                 .XXXO..................@XXX.                   ",
"                .XOOO.O................@.@@@X.                  ",
"                .XOO......................@@X.                  ",
"                 .XOO.O................@.@@X.                   ",
"                 .XO.O..................@.@X.                   ",
"                 .XOO.O................@.@@X.                   ",
"                 .XO......................@X.                   ",
"                 .XOO.O................@.@@X.                   ",
"                 .XO.O..................@.@X.                   ",
"                 .XOO.O................@.@@X.                   ",
"                 .XO......................@X.                   ",
"                 .XOO.O................@.@@X.                   ",
"                 .XXXXXXXXXXXXXXXXXXXXXXXXXX.                   ",
"                .XXXXXXXXXXXXXXXXXXXXXXXXXXXX.                  ",
"                 .XOO.O................@.@@X.                   ",
"                 .XO.O.......++++.......@.@X.                   ",
"                 .XOO.O.....++++++.....@.@@X.                   ",
"                 .XO.......++++++++.......@X.                   ",
"                 .XOO.O...++++++++++...@.@@X.                   ",
"                 .XO.O...++...+.+.+++...@.@X.                   ",
"                 .XOO.O..++.+.+.+.+++..@.@@X.                   ",
"                 .XO.....++...+.+..++.....@X.                   ",
"                 .XOO.O...++++++++++...@.@@X.                   ",
"                 .XO.O.....++++++++.....@.@X.                   ",
"                 .XOO.O.....++++++.....@.@@X.                   ",
"                 .XO.........++++.........@X.                   ",
"                 .XOO.O................@.@@X.                   ",
"                .XXXXXXXXXXXXXXXXXXXXXXXXXXXX.                  ",
"                .XXXXXXXXXXXXXXXXXXXXXXXXXXXX.                  ",
"                 .XO.O..................@.@X.                   ",
"                 .XOO.O................@.@@X.                   ",
"                 .XO......................@X.                   ",
"                 .XOO.O................@.@@X.                   ",
"                 .XO.O..................@.@X.                   ",
"                 .XOO.O................@.@@X.                   ",
"                 .XO......................@X.                   ",
"                 .XOO.O................@.@@X.                   ",
"                 .XO.O..................@.@X.                   ",
"                 .XOO.O................@.@@X.                   ",
"                 .XO......................@X.                   ",
"                .XXOO.O................@.@@XX.                  ",
"                .XXXXXXXXXXXXXXXXXXXXXXXXXXXX.                  ",
"                 ............................                   ",
"                                                                ",
"                                                                ",
"                                                                ",
"                                                                ",
"                                                                ",
"                                                                ",
"                                                                "
};
