/* XPM */
static char *aa1bb9f2682949fab147131caacfd38fUyJnZfdyJILQkJTh[] = {
/* columns rows colors chars-per-pixel */
"128 128 85 1 ",
"  c #4B3D36",
". c #453D3A",
"X c #4B3F39",
"o c #4E423B",
"O c #514036",
"+ c #54463E",
"@ c #58473E",
"# c #57483F",
"$ c #59483F",
"% c #4B4644",
"& c #4E4945",
"* c #4E4A48",
"= c #554740",
"- c #564942",
"; c #5C4C44",
": c #544E4A",
"> c #5B4F48",
", c #5F5047",
"< c #56514D",
"1 c #5D524C",
"2 c #575250",
"3 c #5C5652",
"4 c #5E5956",
"5 c #5F5B58",
"6 c #614F45",
"7 c #635047",
"8 c #6A5346",
"9 c #64534A",
"0 c #69564C",
"q c #67584F",
"w c #6D594E",
"e c #785947",
"r c #715A4E",
"t c #795F4F",
"y c #635751",
"u c #645A54",
"i c #6C5B52",
"p c #645D5A",
"a c #6A5F59",
"s c #725D52",
"d c #785F52",
"f c #6F6057",
"g c #66615D",
"h c #6C625C",
"j c #766155",
"k c #796256",
"l c #73635B",
"z c #7C6559",
"x c #77685F",
"c c #7E685C",
"v c #666260",
"b c #6B6561",
"n c #6E6965",
"m c #6F6B68",
"M c #726761",
"N c #736A64",
"B c #7B6C63",
"V c #736D69",
"C c #786E69",
"Z c #7B7066",
"A c #76716E",
"S c #7B726B",
"D c #777370",
"F c #7A7572",
"G c #7E7976",
"H c #816655",
"J c #886B57",
"K c #80675A",
"L c #836A5D",
"P c #896E5E",
"I c #87705D",
"U c #8E725E",
"Y c #92735E",
"T c #856E61",
"R c #886F61",
"E c #857166",
"W c #897162",
"Q c #84746A",
"! c #8A766B",
"~ c #8C796E",
"^ c #947661",
"/ c #937864",
"( c #837B76",
") c #8F7D73",
"_ c #9A8574",
/* pixels */
"iu099yypMpyyyy0y99->-;6-uauaupug>y6iiiiiiiiuiasaii0y>09y0iuiillayy0wrr00yywiy017>@60u966>===+>1asalllalzKKljsKrisi9yy939uiyqyqqu",
"980i00iiai9099www76999666wrr0rapi9;0i0rww00w0rsw0900000060999w0p6600e87909600066@o;7666@=6=>;;1isdjdddddsKKKsrrirrssr0ssi00i0rs3",
"w6897908r0wr00rr076007790rrr9r8ay6666000076766007709009060699r0p77r78866666977666@;6>;;@@6@@;=1sLdkrjjjzKrKKKKjrsiwrsisjsjjlir03",
"08900698w909rirs076909670r000w6u666@;;;666;66;;79990009960999w0y766077066@69790>9@6;;;@66>;@;=>9rrdrwjdjssrKKlKjjsjrsssjKKKssri5",
"00760000r0wrrsssr07wr07w690r0071>;;;66666;66;;677760;60669699w0377670876;>;6699>6>6@;;66>96;6;>10yr0srssssKKsKKjsrssrsjsKsKKKs0u",
"sswy996wiisssssssr0wdwr76060060y>>;@@@@6;6;7;660w07906076960000p907786@@;6669666999>6999666@;@6irssssssrsrsssssjjwsrjsKjsssjriip",
"lwssww0rsdsddzssdr0wrr007r0777w3>6@+@@6>6;;6666770670;;06699090p09976@O o+=6666909y0990@76@@;69ysrrssss0srrssssjrwjwssKssssrw0wa",
"issr0r0rsdzdsdsssrrrsrw9w0087011>6===669666;@;6@070900660669099g0666@@@oo+6@6;160000009076@@79yirrrssr0js00rrKssjsrwjjsssssr0suy",
"y0008000skHdskssrwwwsrr98www901<>>>>6666;@;;@;>;6>66>6;97>0709yyy676@;>>++=611979000ssi0979979ii0rr0wswwsw0wirrrssswddsssjsssq=2",
"139000006dzsss0q10w7srrq7rw9q11:<:>9>6>967>;;>9;>007097790909yb4y9>69>;==@9990y910ysiis090=9003ajls00rwjww0ssiiiasiTjsdyiqu9qy32",
"p3233>2333vppp333:34533:142344gbggppp4p31333322*>22y45444p44pbnVb4332>22324pgg43upbbgbggg>1gpgggbga1;3434y4uup323uul44uu5>4345hb",
"y>-;>;;;7;009yuyguu>7@;@;6--=-yay9i000y076>>>yyp440>9997;;7>90ia9>;>;=;;6610iahnCMkjjjsrs09ssskzzss00790000wihggphq-;;;>7@6;99qa",
"69;;7;;;;;@6769pbh1;6;=-67;+-6;7600999066@6=;>344>9779777>0>907;6>;>@;666;6600yhljjsrssssr0ssdkkdsr7r0www779r9lpui7;+;;;7>;;666>",
";=+@--;;6;;6;;>ybi7;6;-66;++-7>76ri000066666;;94y790997;00999;0796;;;>99;;>6999yldss0rrsr0r0sddkjrr0r0wwssirrrMgi097>;;617;;;;;;",
"-;-;;6;-;;767;69biw0>6-6;@6+;;79r90909006@06>99yy99090>;7097767006;6=66;@;;;609ylsrr0rrrr0rsddrdssrr00rwwsssKjKgiw99;@;67;;;;7@>",
";++;@6;7;-6-;-;9iy70766;66>@;>66000090066@9i90ii00y0090;9799>6;79@@;69;;6>>9990yisr00rs0w0srddrKjssw0rwwwrrsrkKgwy079;;;6r6;>;6;",
"@--;-;66$+;;;;;yu000976>7;6-7>66669990066@09090aaiii00919907;;;9>;9>666>=69y7769ajr0000rrsjssdrKsssw00wwwwrjkkcbi0w08,;,,;;;;;--",
"+@-;;;;-$O-;;;,15u0797776;6;77;-;6;700066660900yi0ri0r9099y7;;;6;;696>;660967yyywr76000rrssjd7rKcsss00w0wwwrkzxbaw0wu8;,,;;;;;;-",
"-;-;;;;-$++;9+>1uu0190996q7677;;;66660066909000yy0iri00000096>;6;;66>>6977y79904y000000rskjkk0KKkjrr000w0wkzcllbayiw99;;99;7;-;-",
";;;;;;;;$-#;,;-33yuu7r9-71>6711->>9699066@90y00yy0ri00700009;;67699>6969969w09y4ur0r00rrsjkkdrdKjjswwww0wjjzlxNvbaii9w99,;,>99,-",
"123y3333,-11yu:bbga11yy11333341:213y4y3369gyiiiaiu9yy11yy0yy>>11y9yyy9>yyiyyyyuy90yy9yyyialaaialfapppuupughbnmFGDVnvnCpp53453333",
"9;69899$$$1,yaiaMll900909990qi5gyy>>@;@@6>9yyyiy919>>>>9yyy>>=>3uwaa9uu9uiywiubr99y769yyyiiiaiahxslisixjjkcLRQ!_~RRKLRcsjjisssi,",
"96768876+7088986w0w77997766600apu>@=+===>>6@@6>>6>>>;===;66;++;10rwsr0000ssss0r0y07760000rrrrrwMzckjkkkjzcPLTLLRRLLHLKcjjwssjs9y",
"969976+;$;,868909977099976676>ip3;;;;=;@@@@>;;@;=@;==@==;>6;=X%>99wsrisrssrs0s00007760000rr00rylkjsjjkczcRLRRRRTRTTscckjjiiswja9",
"966;$+@6+;806998786@707976678794>@6;;;@=>@=====+>=6=======;@;o=>90rssssjsjs0rr076997670000r000yLKdtjccckLITLRWRLILzdkKzzjwssjjfq",
"9696;66$$;689807766677076;677793>@;;;==@=++++++++@;=++======++%67rjdsskkzks007767077@6070r6099ykcdkLKLKKILLRTRRPLLzdkczzzjsssji1",
"900;;;66;-99i6096666779676667791;=>========+++=++++=+o++++;=oo=10jsjjjkkjdjrr06606666@99000670yjkcKLRLLKILcITTLLkkjssdsdjjrssfq1",
"s007;6698798088966@6677676679791>66;========o+==+>==++>@=>====>y9rjkKjkkdrrrr0@6700066990006609iKKKLKddckdzkLRckjjdswsssjjjjjkff",
"w009990ii6798099666@-67667797772>>@@=;=>===6++==;=;+>=======>6>y0sskkddkrrjrr066009ri99w007676yaKKKkckdcjkzczczjjjjrw08jssjzzccf",
"ww0980890668906666;;;676677797>3>;>;=@@===+@+===>6>>;=@>==;=;>>0jkjjrdjKjsjsr099009sr009706;90yjkktrjjdjjjjktzkzzjsrwwwwrrjccclf",
"yy0y9yy000900991976;=;96671q61><<>>;>=>@>===;>>>=>9>>>>;>;;>>>3ywjjjkkkKjjjj0y0y0iiss079067;90aajczscjskjjkkkljljlswssjqqqflxlff",
"saaaaypupuyuuy3:::&:<3*<333333gng44334333221<<:<2334py4444234yyaabMMMMNMMhMhaap4yaaaa4yyyyyyyuagaah3p3ppg5543gg5g4f34q41qfflllff",
"zzdddsssdzrrssapy>+==-+=@-6;=;>uu66;;;;;@+;=;33gaasrrjrssrrrsrkkTdBTBWRTTTTKcCCCNCciw00w00wiwjfjss0s0iiswswsaxBDMlaswsrs0szjHzkk",
"zddddssssdrrdrzMy;;=;@@+=@@;;=@@;;;;;;;;@=;@@;3gMjrdksrrssjrssskdKLRRRRLHTLLKRQCZckksriiwwjwssrrsss0r8000wsiskCCBksssssjsckcccjK",
"Bdssssdsarrrddda>96@6;6;;;-;66=;@;;;;;;@=+;;6-;pidrkdrkdsssswsdddTTRTRRPKTLLKKTVBcjzjkww8iwr0jjw088s000000siksBNcdssdjcjskzKccHc",
"ddriwwsrsrrr8dsi16901;;6;;;;;=@@@;;6;;;;@+;;-;-3rrrdkddddsksrssdddLLTRRLTKKKKLTNcjkzjzjtjw88w0jr090000080ss8sisvjssrsjjdccKczKKk",
"zssssisssrrrsdda9;900766;;@;@@+o@@;;;;;@=+==;-;3ss0rddsddkKdrrdsdddTKTTLTLHKKLKBzkkkzzzzkww0ww00iw8800sszss8iiwpjssssjsczzLLLLLj",
"dsdsssssdsrrrdday;9770766@@;=;@+++@;;@;;1;6;=6+3ssrddkkkdkkkrrsradssdszzTTTTLLKNkczzzzzzcjjwrwrss00809isdjssss05ssssdkTLLzLzKjjz",
"dsssssssddrrrsday97770776-;;@+@;@;;;@@@=;6;;61;3sssdskkddkkssrwwwddssksddTTLLPTMzzHzkkkkzw0wwswws09608isjksiss04sjssjkkKkzLLLzLz",
"zsddddkdddrrsswp107709966;9;;@++@+@;;;@6;@;6;612idkkdkkkzdzrkw0w9ww0sssdsddTLLBbjzzzkzzkLkkjwjw0si080isds0sjss94ssKzLRczLzzzcHkj",
"Bddsddddsssssiiy>6;;;666;@;;;>6==@@;;;;666;7;714isjsjjKkkdkrkr00r7999wdsscsdLBBvllkckzkzzkzzjwwq0wi00isrrsisis9>sdKLcTLLzzzcKccj",
"iihsasaaaaiqiiu332>66;6;1>>;2;>=>>111yy77y9>1132uissskkzKKKrssriiswawsadjzckccMvMlzzzzczzzzzliqq00wwsswiwsi9yii2iazBjccBckxljlls",
"u1yyiu9y09y1>ypbpyy233>2>1y1>>1;334uyuwyauaauabCbgasaalbhhbg4333yp3224yppvvppnDGAVNnnnnnbnnbhp3<233yupuuu1yuuiiyy0y0alxxxfhiauha",
"u0sww99w0y699;1>2;6=;;6o=;@;;661uilsssdrsrs0iillsssrsjkkkzkkli0y>-=--;--999919MMMaiiqqi0qqq99g4baauiwiiw90900isljcsw0sjcjksiswji",
"p9q09000890969;X;;=;;;;;+6;;;;;ypasrrdrrr000r0r0r0rrrsdzkzkzjjry>;>;>;-;;77>;7090yww00qiqqq89ugbh00iri0wiw090sssss00rskcjzzss0ra",
"u00000099099999=;6;;;6;6;;+;;66yawrrdrrr00r0000000r0rkKddjszjKsi>>;799>;;6;>>79090wsi000wqwqq8ugasri0r0sswswwwsssiswissjljksiswi",
"3y000000907909w6>666;=;;==@666;yarrr088080000770000w0rssrrsddjKly;;999;-;76>;>9900qawyqiqwqq899giswswr0sww00ssksssswwskjjkksis0u",
"270000r99999990666;;666;+;;6;66yy0r77868000000006600wwswrrjdsjKlaq79y996>;6;7;>7y00qs000988q991gsi0wwi0siws0iskkssswiiskzkksss08",
"177w009970799997;;@;7;$;;;;66691y09967070000070077r0r0rrwrsddKksu0990y969;6;>;79,90wqwq9q8qq991gjwwwwww0wwssjjzjsssiwiwjzssswsw8",
"316ww0997710w9776$@;;;;;;;=;6;0>1y909600w07000067r600rrrrrsdkkrla0y90y799;>;9;-7,,7wq98q9$,$999gfswwswwww0siizzkzssw00sskssrirwy",
"3>>700799007977;$+@;;=@;;=@@;@;>>>yj000r0000rr0766070rrdwrsdKkdzp0000997;;>97;99,79,,,,,,#,,9,,gwsqwwsqw08ww0kkssss00wsskksisrii",
"u11179000017996;;;@;=7=;;;y;;=>2:>10r07rw000066606700rdrwwrssjjfppy00w999997709y7,,$$,,9,#o+;;;5wsjjq88886wswwjksss900issssir90q",
"ggpu4uppauauu41113>3123y122213ypb43169yyy0>97>>92>=>6y0iyuslssfMpaaaw011>1979999,,,,111,1>--<1,4quqqf,,9919iuiiiaiqy>iiyuqq19,94",
"yuy11190uau0911671=>>;9ypuuyyy>1yy>>o6>>3>>>>>>6>=>=69yy33ypyabnGVVCnbvp45ppvbbpfghgu,<,4fq9qiiqqfqfq913<:-44y3yy>>>2y3334,,-11,",
"99700qq01u00776666;;67799y96996;676666;63>;;;;@;;;;>>66ypyassslE)~!RRWQCNpaaiiii0q99q7$,4j80wjjrwjjjjwqfg441,,;99;==;9ppp,$##$;,",
"79w900070q096666;@@667971100079;67666;=69;6;@=@@;=;;;90yggssisjKKTLKTTEQANi0ww090998w9$,3wwwwjwskzkjjw8iu1,;;,;99;-;;>9u3-$+#+;;",
"79990707yyw960w07;;;777791096666666666@6>;=;;;@==@@@;669uussssKKLLRKLPLEQh997999q9q8q9$q5risrssskzkzdsswg,;;-,,7,##:$,#>3--$+#$,",
"77890000y00069999966677719966;;;6;>66=@61>6@;@@@;oo@@=69uissjzKkLLPdPLKLNi07;;66989q899$4ijsssjjcIzzzjssu,;,,;;;,###$$$>1;#$+#$$",
"66790r00yq076997966667779y6909@;;666;6@6=;@>;;@;6@@;670iuasszkkLLTTLLLKHMa06$7;;79q8,q,94rsrjjjjLLzzzjjjp,,,;;;,;#$##-o,<,###$#,",
"69980009qqw7669677667777y9700966;;@66@>@=+===;;6>666>900aiskKzLLLLPLLLLcjy06$$-$7q9q9$9,4ssrjjzzLLczcjjs4,;;,,,,;,,$<#,$<,#-,$$,",
"66009000qu077766666;7707y999796;96;=6@=@>%6=6>669996600ruiskKKLTLLKLLKLKfq9$#+#$q,9$$,$y5fjszzkzcKLcczjjp,;,-;,,,,,#>$$13>$$$,#$",
"6@909090qiw97666666;7770yy697966;6;;;6;====@=;;;999>6900uaskkkLKLLLLLLHjfq9$##$,$999qqqy4fjjzzzcKcczzIzju,##;$,,,,,;,,,<:>1,99,,",
";;9w0w9syqww766@66;67790qu9909>;>;>>;>9>>>>=@=;;69000>00iikjjKKLKLKLLLckuq,#+###$q9qqy1u4flxcxxkcczjkkjxh1##-;$,,,,;$#O#::>,97qq",
">ppapaaagppu331123>2yy4upuyuyu2*%>>>>><>2*>*>:>293y939yuuyaifflzzMBdxljigq1>&---<f1uupgvVVnMnxhgxlhfffffg41>>><,>>>:>>**g43qgg42",
"agi009090y9y>;;@=;;=6;>99>0>yp4py>779767666@66078w8880ifiifiiiigasaaaiawqy17;=-:9i0y9uiuMMljBCNNbiuyyyyy919111,y1>31>111u11,hbhV",
"bi9799997997;;==@=;@;>666;>;;9paa06666777668787800778sssrssssrsfssdrirs0r97776;986i0ww0issssjslyww00w908;79-;6;969799;6996;9ijnn",
"l99999967997>;=@;;@;;;66;;;;6;ypi97607788770708708q0sssdrsdsssjhsswrr0i0097996769iwiiissljjkszliwi00iwi0899>69;;6999;6667979wsin",
"i096600779776;;+;;;;;;;;;;@;6;7p00r07778867008868980swdrrrssssdhswsiiwr00ww990r00riiskjjzjjsszla00090wisiu8969999999;999;78isifh",
"000>699679>66;@+=@;;;;;@;;;;6;7a0r008776668068667600ssrwrrdddjjhriirwiww009070w0rkjjjzzjjkjjjclaw00009siww89,,7799996999;y8qiwlh",
"009997969777>@;@+=;@@;;;;@;;;==y0rrr0777778866@@6688srwdrrsstsxlsdswwrrsirw69r00wjjjzzjzjkkkjkxlssi00iwwiw98,8996909969999980wfh",
"00r99770700;;6;=@=;;@;;;;;@;===38rrr0r7778876667;660jrrsr0dsjscMdddrwwissi7000wr0jjkjjjjck0kjjMh0ii0sasiwsi98999869;099890986wfh",
"y0y907797076;;6;;;;;;;;==@=;;=>>6700rrr0080;+@;767;8ssrr80srjjxhMdasrsissd000070wszjkjjjss0sjkMbiw00wssswii8qi879689900ww00060ag",
"ui009>676;>6;;;;>;>;;@@==;@;@>=26090wwrww97666=78;;6rsw0wwwssdMhbdssissssdadiiiwiswsisijHwjwwlhhui00irjrwqw09q7,8,7798wiw9098iug",
"aiy099696;6>6;>97>9;>==;;;;>>>>23990wwww076797099;-0rssrwiwwfxMhhhsiisssdsddduqq9iisssijkwqfffhgaaa9wwqw0000899,9;99q90iwi9i9phg",
"nbggg44434yap44234444333323y34pbp5534uy4u<::::<2*%:244pp244pgbAFAbvvgvgvbbbbvpp43pghggbbhhhvgbAAAnlpu4u93qqq1,1qyu1pupuu3puuygNF",
"Nsri000900wriilgbbajs7ww0r0wi0yairisrrw0i00w0wap4:<9>;;;$,19qsxNMiq900yqquwiwMNbAVZBcczzcfcccxxEBczsjjfffifffilfppayiawuy9yi9ihB",
"rrw0097060rrwrshnMjdsw0rrwrwr000r0r0rr0080dswwif3:+-;=;+,,098qqq09097999000q00aNAQTLLLkzzzzcLzkkjjssjskkjjjjjzzzpfiwsswi0wr09q00",
"00w09077600rrwwagsj0rwwwrrwrrr00000rsrr08rwsswsi3-->;-7;,q99qq8q090990909q090wwhVcTRIIczkzzKLcczzksjssttrjzcczLcvjswwwsw0is08,80",
"70w0700967wr000r4issrssrrrrrr00000r0rrrr0rrssrww2-=;;;998qq9q8q800999990qq090w0qNcLRPPIjjjkLcccWPLcjjsszjlcLIccLgssiwiisssww9089",
"0900000000w0000r4ssjsrssrrrrr00r00rr0rsrrrdr0swi1;;;;,90rqw0qqqqyw0179790wq00790VLRTLLItkdtkcLWWWWLjjHjKkILLcczzpssssisjssi8i0i9",
"09000ww0000070004rrsrrsssdrssrrrrrrrdrrrrdjj0r962###,19qrswqwqq8000779qwww0y0909MWRLLRTsddsdcIWLWWLLzkjccKzLzzHjpissjsjrwjjwwwqw",
"www0w0rw07707r005kzsjksdrr0rrsr0r8rrdrdrsskrr606*##>,$9wwwqwqwwwwqqqq70wiqqw00y0bTRLKRPkrsrsccLRRWLTLzcLzLKcLkzKpsiiwjjwfjswjsrj",
"rrwwr7rr9090wr0r4akkzzzKddssdsdwrrrrrrrrrsdr0966*o#>$$,qwwwrwriwirww09qwiw00000aMTLTKLKddr8skIIWRTLTLLcLKKLLIkjzuiwwijjwrrjjjjrs",
"0wrw00w09900000y4issjKdKKKdsdrrrddrr0r0rrrrrr67;*##$#,,,qwqiwiiiirwwq70q00000qiaNMcTLkcjrrsscIIILLPPLILLLLKKzzlapiisjjjjjjjjrjww",
"y0yriy0009000yyu4pifjsssskkjirir00y00rw0wrii00;:&*##$,999qqififiiaiqsiq00aaaaaaabBNccccswsdjcLILcxcccIxckzkzcxfg4uuifjjjjkjjjiwf",
"2>23344433234pbnVbp4443y44p33333:=:22233:1p3y::4p44254gupfhMmmmbbbbbnbMMNMMBBVSC(SCNMhhyguufhNVNbghbxnhgggggpvbmVn5gggggvggpg444",
"p44y06900>000wllll000967000099yyyp3y6;;6;676y>=;,1,,790qqiwirsjjCCBTKssTcKTTTTRQ)!ETcKzsjjjkLLQQZAZScczzzjzdkkzcBcfjjczzzjjjjjih",
"i4y96690696900rw0096779969709969y446>677767066==$$,$77998qwrsssiaaTddssscKKKKzKLLLLLKLkjjjcjLLIWQAZczzIzkkkrsszkkkjjzzzkjjjrjjrq",
"i4>6967669766667006666770600909694y6669;7907996=,$$,,789980wssssidBdzsskzcKTLLKTLLLLLLkkjjjzkkzkcmczzkckkjzssdjzzkkjzczjkjrjrjjr",
"0369776996609976776666676000069@63;7707669ri097;;##$$7979wwis0iwsaTdszskkTTKTLKTLRcLzjkjzjjzkjzkjpkkkkcskjjssjkkccTRPcczjjjsrjsr",
"i2>00r099777076776660060000006661317997669rrriy7,;$;77899wiw0wiwaadzzszdzKTTKTKKLLLLjzjkzjzzjsjwipkzjjjtssssdjjzLRLLLPLcjjjrwrjr",
"r30ir000790976777067099700r0009903077777090rw0wsw7;+7,998wwww000iMdssdzdKLTLTKTTkcccckkczkjtjjjwwuirrirwssissccLLLLLLRPLLkjwwwrs",
"i4900iw967i07666776000070r00r00r94y67779900rwwwww089;;6990wwww0wqaKddzdTTKTLLLTzHccjjkcLKzkjkjj09pjwjzjjsssjsLLLLLLLLWLWLLjrwwwr",
"w29000w00000r0669900r0000000000093>679700906rwwisii9897999099000aaadscdLTKLKLLKdkzcjjjkzzjljsr001yisjzLjksjkckKccLcLLRLLzcdrww8w",
"y2>ywww00000w0067779000000070000y2>6690000009wrwjiw09999999iiiiiapizzKHLLKLLLLHdjsljjkjkjkjjjji1y4ztkzjjjjskKkzccccKLIHzkksww0w0",
"y23yfssi0900i096y99990000606>0031:2>606909ysww9y9yyy9y9y9yiafllhMphhMBBMzMMzsaaauuupffhhffuuup4pgguailjsiiiiljkljjzLLILzkkjw0wiq",
"bb4ppgggp4333p442:22444442322334pvp33224uu5puuu3uy19uy91yuphhbnNVFNMbNNbaiiyyuyu5uy919yyyyyyy99yq11,1493y4uyphgugggnVnbggg52534p",
"yyy>>>6>6>==;>>y4py39;;;@@7@+o=>97>=;;6;;;90qw1yuu>69767990wisssxNlisjssii090999pp9>79977999>y;>,,;,,8,89;;>9ihNVnhfqwqq,,,##>>1",
"=;=;;=;;=@@==;;>yyy>666@@@;=+o=@666+;;;;677q0w96pu179977900i90iiiii0sisssi999671497799999999977>,,9,,9999;;;;99hbh977,,9$,#$$>$$",
";=;;;;;;;=;=@;==1g>@6>6@=@=+6X.+X@X+;;;;;77979w0iu6977609900000iswi000sssw09099>4,97799;97999977999,99,89997,99ugu,,,;;#$##$$$$>",
"@=;;;=;;@@=======<6=;6;@+@=o+6+oX766;66;;69777wqip97179999i0090w0w0w90iski09099,u1999999999999;>899999999;9;8999g9;,;,#;###$>,>#",
";=;;;;>;;=@==+++=3>=;;;==+==o+++=X=67;6;6;6779rwap0i0099990000wiiww0089ss0i099;7u98i9999w097799999,99,,99999990iu,;;;;-####$#$,$",
"@=>;6>;;@=@==@@;;1>67;@=@@;;@;+o+;;776;;@76670r0qu9qqswwiwy00wwiiii9i09i0i0997>9p9990090i099797;9i9,76;,9;6>999up,;,###o:##$$$$$",
";;@;;@===+====@>>3;@676===@6@++@==>66;;;67699090qu09wswq00000wwwsljssi9800i99;79uui9y000i09999979998;6--;;999,81g1;;;;####:#$,$>",
";==;;=++o+++==;6;<;;70966=>6@==+=;-666;777990000qq00ww90999000wssissii0900i999934yu90ww9i009y0999999;9---;99899u5,,,,#####$$,$,#",
";;;>;@==+oo===>;*>*;66>666@6@==++-667;79999900iyppwuqw09qq0qyyyqsiiijiiia0w00yyp4uu99i9iq00y0yq3u99799;;;>999uuuv,,$$#o###$$,$$1",
"y9>6>;;==%++===;>:>:>3>9>>>6;%o+=->>yyyuyppapppavbvvvppgppgpppuvbbbhbbbnnnbvvbaNANbgpbgbmbvvvppppuu3333y33yuupbbb3,1<###o###y133",
"gayppy3>9*::213ypb431yyy>>>>>>=.%=>:>>-9>>9;7>999qqw>>7779quavmMCckjzjkkkazzsaaxNxliwijjdzslBCANxf9w0iyyyiuiiiafffqyq4y$:$2py33u",
"ls00007;>=;66@6639>>66@;@@6;;6;>=-;;;797777;>677697199yqy0y9yanBzjjjssiw0dkjjjsssisiirksdsddBSDClwwi009900rwsssswwq7w80$$,$wfabh",
"i07000666@@66>;;6;;6@66@@60669>*=;;-;;>6977>>;;>99q0999979990unaskjtsswrssjjjkjskkssssskkzzMcTABi890009998wsw9ww8q8wqqqq8,79ilbl",
"990900066;;@6;;66;6;6@@66690969>=-;>>7>697>97>>>999919999999y9vsssrw0rwwssssjssskskskssszkkzzcmjsw8ww9;8wwiwr0wwi88f8800qq78rfbf",
"000000069;66;6;6666@@@@@6699066*=;;;6>7>97>799999y9999y9>9100ypssww00w000s0isisi9ssksswsssszzzmssii98w0990sssiwsiiiiqq8q80ww8ipq",
"0000007676666;;;@6@@=6=;6666660>=;;;6;>699;;779999999999999y0yprw08w0w08q0iiwwww00swsssirssjzcnksw0wwwi00wisssssrrsiwrwq000w77uq",
"770000777666;6;7@669;;9666;666y====66;9;;96>>7999999909y69y090hs08808wq898w8wwww0is0980ws0wsjcnjsriwwiws0wsdsassrssi0qrsq9q0903i",
"70076769w066;666660766;666;6;79===--;>;9699;>7;9999>9y999990yqbiwwiwwr8qq0swww89wwwwwi;0wsssjxnxsswwwswswwrssdssisrqw8wrrq0870qq",
"6000779i0766;67@6600766;@;66;@>>==;-;96;>>9;7>9919999900y9y0quhaswssrw9qw0swiiww0iwi8;89wwssjlbfasswwswiwisBkTzsrssrqwwqw8ww0qui",
"0yww00006>9>7669660009y9691>>691-;>>;>9>>97;;99999990yqy19yyppgbfajjjtiqiuiaiaiuqw889qq19iiffbhMaiqiwiiiqadzzcczzjjfsfyquqif,qg3",
"yy344442>=>1233>yy443332:22:222424u4upv434aapaabbMhvMNnvppbbnAFAVnNBcxfp34ghbhpu444221<<33uhNZACCMaaapp4pvbnnmNNMMnh5g44335334gg",
"09y099ip44y00000sssr0yy4g2>=oX==-->;>yaanaaaw0iiasissaNMVNCEQ!!!!!WW//QZVbNai99,-,,,34ygpfliillllzdjlMNNbMMdkkjcxcccsffhmhhi9q8q",
"7776>;9uga00w00rrjww00ra43>=o%==--;>;;0bmba00000s00irsaNCCTKdTTKLPPWYYQQAxh999;,;;;-,9ughjssz0issszzssCNCBssszajjjxdjfqMnl8q9,80",
"7990>66ygMrwssrrrr0r907y3*+XXoo@+;;;;77aNa00i0000w0iiwilNTBTKKKTLLRIYYUQVf9u9,,,-;,,-,1hassrrsssssdddaBCBssskjssjkjkswwig8q8q998",
"90966660gzzKzkjrrrr70066>=X.X+o=+--;776yv9i000090i0wwi0whTKdTdTdLPPU^YPWnu9999,;,=-;,-,40r000wsskzzzTTKMljkskssjkkrsswwuqq8q9#99",
"9006669yaKzzKkKkrr000776*oX.X===+--;97>9v0909000000i0i0ibKKzKTTTTPU^Y/IWh9qq99,,-,;-9,1490688ssddzdzKKzafajijjsiiiriiwwuq899,999",
"070060w0gKzzdjkkr0r076;6*X++===@;-+-;999v0090ii0009iii0iaTzKTdKTTRY/Y/JEh9989,,,,,,;,,,4y8860dddkLzHKdKMlsjskjssiw0iwwwuhw9$98q8",
"0066070wgkkkjzdsr000676;%=X+==7>;-=;;999vy0000i0000isiw0hKKKKTWRRLW/YYJLhq99,1,;#,,,,,,1986;8rsddTdKHzdMisskjjisr9i09wqyuww,9008",
"9999y000pfkkddsrs007666y*.===7==;>;69777p0000i0iw0990w0whzTKKLLRRR^YYYJWgu999,9,,,,;-,><196670r80dTzdTTaassjkjwww809898yuq8qq8,9",
"996999933issrr0r0070;6y>%**>=>>=;7-6;977p009000w9i999;-8lTLKLRPPWRUYYUPLhuu99999,,,9q3q3396860wwiddzKdKaakjjskiii9w9wq939q9879q8",
"yyy99>9323yi0y0y0y6;y124g442311*2y>1yyyyvyuquiluuiy99y1ypBBlBTBxcikkzLczpahppgup31ughggpg1<->yyuibbBMMMMbhbNhhaupuu4443434y4yqqq"
};
