/* XPM */
static char *_f2f2b429d794c9b847d63fabfeff567Zu4d3renfs5IzJgm[] = {
/* columns rows colors chars-per-pixel */
"128 128 39 1 ",
"  c #5D5D5D",
". c #626262",
"X c #676767",
"o c DimGray",
"O c #6F6F6F",
"+ c #717171",
"@ c #747474",
"# c gray48",
"$ c gray50",
"% c #808080",
"& c #868686",
"* c #898989",
"= c gray56",
"- c #909090",
"; c gray58",
": c #989898",
"> c gray61",
", c gray63",
"< c #A4A4A4",
"1 c #AAAAAA",
"2 c gray68",
"3 c gray70",
"4 c gray71",
"5 c #B9B9B9",
"6 c gray75",
"7 c #C0C0C0",
"8 c #C5C5C5",
"9 c #C8C8C8",
"0 c gray80",
"q c gray82",
"w c gray83",
"e c #DADADA",
"r c #DDDDDD",
"t c #E1E1E1",
"y c #E7E7E7",
"u c #EAEAEA",
"i c gray93",
"p c gray94",
"a c gray96",
/* pixels */
"975554565654544597053986848466647779758858676648576579889887533434565556575476450790670786647565568868085957475867546777568872>;",
"345557eptteettwqr8etqeeerqtweeeqeewrw9rrqr0eee9wqrw0qewqwwwe0422554458eueyretrqwr0qeqeywrweqreeqtqqrw9qr0e0yqe8wwrwqeewwreew05<,",
",24,2yy7qq873<337418287705639855745913<036<719343033376139<25741,24,2yy7qq873<337418287705639855745913<036<719343033376139<25741",
">:<16w079505151267628217137542<363616229809633343576484935443281>:<16w079505151267628217137542<363616129809633343576484935343281",
"*&;18055284543924<2925674662<3373<37,446423<4353423237<361452<0<*&;18055284543924<2925674662<3373<37,446423<4353423237<361452<0<",
"@&;>6q53336425557451w22422124931,48283485423463<4811454:0215330>@&;>6q53336425557451w22422124931,48283485423463<4811454:0215330>",
"O&;;5w73426522138461q122>244272342076305466532211632425195,4467,O&;;5w73426522138461q122>244272342076305466532211632425195,4467,",
"@$->506414296,422:37128484,<6q5239234625215,4<424<3154<536,43552@$->506414296,422:37128484,<6q5239234625215,4<424<3154<536,43552",
"##-,49623>5435<32<6>6>42;1853<<521423,61534<524181327625<4121262##-,49623>5435<32<6>6>42;1853<<521423,61534<524181327625<4121262",
"@$;,396>32,<<<2>6>24>16:3<1>3224;5391<14>2351335<42<4,54<12<<,7>@$;,396>32,<<<2>6>24>16:3<1>3224;5391<14>2351335<42<4,54<12<<,7>",
"$$::56115:2,121<5,2145515><31<>,3,,3311524<2117352274<3<,722<,q,$$::56115:2,121<5,2145515><31<>,3,,3311524<2117352274<3<,722<,q,",
"+%;,643<:2<4<13<<>211<<2533<<<>2<1,231334241,246133,78,q14424>8;+%;,643<:2<4<13<<>211<<2533<<<>2<1,231334241,246234<78,q14424>8;",
"O&=,5<3,,4:,>11>1<<<25122<64;,2>,,4,,3,<2533<,550<<q3:8144:1>261O&=,5<3,,4:,>11>1<<<25122<64;,2>,,4,,3,<2533<,550<<q3:8144:1>261",
"@&=>41311<2-<1><&13,;1<6;13,<,;,:3,<,>3,2:71,5,4:75-28<<<:2>5<7:@&=>41311<2-<1><&13,;1<6;13,<,;,:3,<,>3,2:71,5,4:75;28<<<:2>5<7:",
"##;:5645;>512>:3>,;:,4<41;1<=>1>,:2::2<511,1223,<;<1<21<>1>1:34>##;:5645;>512,:3>,;:,4<41;1<=>1>,:2::2<511,1223,<;<1<21<>1>1:35>",
"##:>6711:2>4,-:11,<1,>>7,11><1:>>1;,,;1<3:1>,5<<<5,,::3;1<<*>:01##:>6711:2>4,-:11,<1,>>7,11><1:>>1;,,;1<3:1>,5<<<5,,::3;1<<*>:01",
"@%;>52,:21=,-;,,3--;,,>>>:21,32-,>1,,<;:12:,,>3:<;<><<-5;<;1<<7>@%;>42<:21=,-;,,3--;,,>>>:21,32-,>1,,<;:12:<<>3:<;,><<-5;1;1,<7>",
"+&=>4<3<,-2::,12<:<-:12-;,1;:53>;,<221<;,<,<>:<;-,,,:>2><1;<2-6;+&=>413<,-2:;>12<:<-:12-;,1;:53>;,1221<;,<,<,:,;=,,>:>2><1;<2-6;",
"@%->51,=;<;=<>=<2;:6,>11<;-1-3=2:;2,-2*:>;;-<-;,>-><>,1,,=;,,,3*@%->51,=;<;=<>=<2;:6,>11<;-1=3=2:;2,-2*:>;;-<--,>-:<>,1,,=;,,,3*",
"@&;>41,-,-<2;;<:&,-:>**3;-,-1:<;<,-1>-;>>:<;->3*:-:<>::-,;:;;>4-@&;>41,-,-<2;;<:&,-:>**3;-,=<:<;<,-1>-;>>;<;->3*:-:<>::-,;:;;>4-",
"@%;,541>>1;;41=:>,--<>,>=,:<<><-,2=>:;<:,,,;,<,;>;:>:;:;:;>;;>4=@%;>541>>1;;41=:>,--<>,>=,:<<><-,2=>:;<:,,,;,,,;>;:>;;:;;;>;;>4=",
"@%-,56<:;:<<>-;,;=,>==2=;<&5:<-:><,;-,>:>,;-<>->:::>::>>;;>;:>3=@%-,55<:;:<1>-;,;=,>==2=;<&5:<;:><>;-,>:>,;-<>->:::>::>>::>::>3=",
"#$->46:*>-*-::;;*<<;1>,:;-->>:;>,:>,>=->>;::=><==;:>>>::1>;-:>3>#$->46:*>-*-::;;*<<;1>,:;;->::;>,:>,>=->>;::=><==;:>>>::1>;-:>3>",
"#$-,48:-;$-:#$::*#&--;,#=-:*-:,:=:->>*,:>:;>;>::;>:;::><,;==::<;#$-,48:-;$-:#$::*$&--;,#=-:*-:,:=:->>*,:>:;>;>::;>:;::><,;==:;<;",
"@$-,39,,;-##;=%;@<&%<=#,&,*;&;:-%-;*;;1:->=:,:%>:,:=-:>1---=:;>*@$-<39,,;-##;=%;@<&%<=#,&,*;&;:-%-;*;;1:->=:,:%>:,:=-:>1---=:;>*",
"#%;,<6;>>#%-%*;&:#@;$&-%&>#:=#-%>$:&-:*,$=;;$;-#%;:;>:-;->;&=-<-#%;,16;>>#%-%*;&:#@;$&-%&>#:=#-%>$:&-:*,$-;;$;-#%;:;>:-;->;&=-<-",
"$#->21<%%=**$*&&;&#$%$%=$*=&%*=*%$=&;**%@#$%*%%*%@#*&@$;%*&;*;**#%->12:&&**&%%&&-&$$$#%-$%-%%-*=$$:#;%-$@#$**$$=%@#*&@#-&&*=--=*",
"@#=,,,-#@###+####@@##@@#O@#++@@@@@@#@+Oo@@+@#@O@+O@##++###+#+$@#@%->1<-$@##@@@#$#@@##@@$++#+O#@#++$O#O@oO@@##++$ooO@@O+#++@@##@@",
"#&-1:>&@OoOoOoO++@###@@@$$#####@#$+$+$@###++#@+++@#@@#@+OOXoXOoO@%-:>:&+OOOoOOO++@###@@@$#$#@#@####@####+#@@#@+@+##@@#@+OOOOOOOO",
"$=;,;-$++oOX+XOOoOOooOOOoXXoooooXoXOXOoOOOoo++oOO+Ooo++ooooOOOoO%=:,,:*#+OoooooooOOooOOOOXXoooXoOXooOXooo+OXO+Ooo++ooOOXoooooooo",
"-;>:,:-&$+@+$+###@+O+@@+#@@######@$@$@#+O@#@##+@#@@@###@#@@#$###=;:>:;*%$#@@@@@#@##@+@@@##@##@###+$@%@#@@#@O@$@+@@@@@@#$@##$##@@",
";;:=<::-:-;-:;:>>:;:>>:;>:;=&%##@@%%;=;-:<<,,>:>:;:,<>::,;;-:-;:,,,,,>:;::;;;;:>:>>,>>::>>-=&$$@@@%$;=:-:,:;>,:;,>:>:;:,;:>>:;;;",
"7975998856664678545776568862>-*%$%=:24775776776654577544855474669877887766654567556876578052>==%%*-:1565454356455444444566664344",
"wtqqqr0eqrww9ewewqqrrwetqw051<>;;>>349908998qwwwwwwqqqqqw0qqr0wweq0qwwwwqww0990ww0qeewwr0r961>,-->>23q098989qq0wqqwetuuuyytrwqww",
"59,5<8542739<5393336533924447<,;;>18yitertwtewt7wyre0rqe8w5ww0e80q0e90e0q796q5987978787024446,>;;>18yitrerwywre7qtewqtweewurqeqr",
"72614078923,836197285623343371<::17wteqq0q132,83<7309674684767518<7137809422533209385742343371<::17eyeqweq6635875q4009080q676692",
"34<3<9454213452142547183442371<;:28ew86854323458035,,6<03211<6451217193431<3442231437182442371<;>19rr97945224368026<<7,837541172",
"91q1592422533145<327<16244337<:*;>5084463027915223777825<25855,<01014925234443461328116344337<:*:>4q065646549233336667365<313941",
"78650281853122563<516<0223447,-$-:596234744145<45681131455273<1678529181746<2,573<526,0223457,-$-:40733477317244667<<3251<8621<4",
"323436235312233312361556<2358<;$=,9w623257<1448653w116:11320623722436721524,5<421236156612358<;$->8e7222551,347632w225;,43187131",
"524<6<62<,517<42428321,211137<;$-,9w534<6461<41<<52373836433<215542:415421326441339322<311137<;$-,9w633<6743133,2722628524484,56",
"8341>4:256,6<6143,1339>321,<6<;$;:47455>2352,23>522<41<<<>31<7,15532>8-3443212342<3219>221,<6<;$;:58454,2534>23>423<51,,5152<324",
"<3213423<<218342<933221452<>9<*%:-875>33>2<11<42<1<<4;4<>32>:13,<3213423<<118342<933221452<>9<*%:-875>33>2<11<42<1<<4;4<2,3113,2",
"1221232331<1372532724727135<7>-=-,782112<2;,1<4,25>551613>,,<1>21221232331<1372532724727135<7>-=->782112<2;,1<4,25>55161>4<,,14>",
"1<<1<<2254,,627435137,621,<:6<-+=174<2<<23>23<3,3;6:5<2143:<1>2,1<<1<<2254,,627435137,621,<:6<-+=174<2<<23>23<3,3;6:5<212<,,,1<<",
"2:>1<<2142<4,9:34,322<,<<,425>;$-<7,2<1<,,<1<>:>,2<41<224,1:>3><2>>1<<2142<4,9:34,322<,<<,425>;$-,7,2<1<,,<1<>:>,2<41<2244-12;3<",
"1:>1112<,2,15>2,1><3<1>1<:127>-%;>6<5<<,,;2>>1;<1>23;8-31<=<<-<<2:>1112<,2,15>2,1><3<1>1<:127>-%;>6<5<<,,;2>>1;<1>23;8-34,3;;3:1",
",:><<<<,,<<3,4;3>1-3<><<<=->8,*@;>5743,<6,3:>4:<<,;,131:2>1,>,;1,:><<<<,,<<3,4;3>1-3<><<<=->8,*@->5743,<6,3:>4:<<,;,131:1,:>>>,<",
"><<>>>>,<1<,3:1<<:<:,2=<:>2<7;&*->671<,<2<,-:1>;<,>2>8><13<2<:,>><<>>>>,<1<,3:1<<:<:,2-1:>2<7;&*->671<,<2<,-:1>;<,>2>8><3;,<<:-2",
">33,>>>2,>,:<:-;,1:;4,<,><1:6:$#::92>=11=,::>,3>-:<;<;1:2-:33:-3>33,>>>1,>,:<:-;,1:;4,<,><<:6:$#::92>=11=,::>,4,-:<;1;<:14<2<;<,",
"12*1>*>>-:,=:>,=<<::1><=;-,13-%$->822,>:1;,:,3,:>;,13==<-1;1:2>;12*1>*>>=:,=:>,=<<::1><=;-,13-%$-,822,>:1;>:,3<>>;,23--<1:;43<=<",
"=<>--,<-2;;:1:::=:,>,-,;,;:>2-%$->41:>:,*->;>;21:24:<11;>;,>3-1<=<>--,<-2;;:1:::=:,>,-,;,;:>2-%$;>41:>:,*->;>;21:24:<22:-,;1-<1:",
";->-:,>>,,<<,-:>:::;>->-,:;;3;$$;;712;,,<,>-<=<*->>=>,,-,,<<<=,<:;>-:,>>,><,,-:>;::;>->-,:;:3-$$;;712;,,<,>-<=<*->>=>,,--4;>,;,,",
"2=;;,-:2=>1<:-;;<>:->:,;-:;:4;#$-,49,,;>;,,:>=>>,-;:1-->:2,,-:,>2-;;,-:1=>1,:-;;<>:->:,;-:::4;#$-,49,,;>;,,:>=>>,-;:1--><><<>*3:",
",>:=>;,::=->,:--:;>;>:<<=::>4;#$::53<&:-&---=>=>>,<:,---=:>;>:<:,>:-:-,;;==>,:-;:;>;>:<1=::>4;#$::52,&:=&---=>=>>,<:,---=,>*>,:>",
"->:;>>,=>>;:;>>>:=>;<,::-;:;1-$%;<29;:-*--%&*<#&=;>-;=--;;*,:;;;;>:;>>,=:>;::>>,:=>;<,::-::;1=$%;<29;:-*-=%&*<#&=;>-;*=-:*=,*,;=",
";=->>,--;,>:&;:,,=:-,>-=;---,=%$;,581:,%@=***-%;&*-=:*-,-;%,=-&=;=->>,--;,>:&;:,<-:-,>-=;---,=%$;,581:,%#-***-%;&*-=:*-,;-&;>=%-",
"-%--=<%-:*$:=&$->-,-;-;,=&=-,-&#-,<6-:,&$;$%;=*&$*=$*&=-&*;$;%;%-%--=<%-:*$:=&$->-,-;-;,=&=-,-&#-,<5-:,&%;$%;=*&$*=$*&=-%*-$:$<$",
"=%-&-@$#$*&$%*%+#*##$=&=%==;&*##;>12:%%=%*%%=$-$$$#$&&%%=&#*&=%$-*=&=$$@#&&%$&%##*%@%*=-%==;&&#$->12:%%=%%*$=&=%#%$#&=&$=&$=%=%$",
"$+@O#o+++@@O+@@o@$+@##+#+$@$+##$;><<-$#$@+#+$#$###@@##++@@O#+#O+@+@+$++OO##@@@#@O#+O@@+@#%%&@##&;>11;$@#OO@O##$@#$#+@#@+$#@%@#@@",
"$@@@#@@####@@@@@@+++#oXOoOooX@#$-:>;&+oXO.@XO@O++#@@##@####%##@$#@##$@#@+@#@++@@@@@@#Oo+XooOXO+$=;>:&+ooooOo@@#@#$@+@@@#@@@%+@@@",
"oooOooXoOOOOOooO+oOo@oOooOOOO@#$:,,;&#OXOX+Xo+oOXOOoOOO+XooOooXoooOooXooOOOOOooOXoooOXXX+OO@#%%$:>>;&#@+oooXooOOOOooOOo@OoO+XoO+",
"###$#@#$@++$#++#@+#O@+#O@@##$%&%;>>;*%#@@#+##@##@$#+@+++$#$#$#@+@###@#$$#++@##@@@#$#@$$@++@@$$%$:>>;*%#@####@#@#@#@@#+O@#++@++#@",
"$@@+$%=-:;;>,::>,>>--;:=;;;=:>,>:>,,>;;;->=,:->::,>;:>::>:>;>;-&%%@@+%%*;;-;:>::-;:-*;:=;:,::;,,:><,>;-->,><>,>,;>:>,>:>,;::>;;=",
"=%%$,1656545543308885786766476867789867956596767465468778785743,;-%%%>14467555549899678665757476778986795658565746547887747551<;",
",=;;0eiraittrewqe00tqeeererqrwe0ewwre0qrwqerqe8wwrw0wrewwqe90651,>*->9rpriptwwwqrwetwqwqyerrpuywitrrw0qtqwqrqw0wwrw0wreweqrwq42>",
">=:>tute0996223282<7393805639855745913<036<7193430333761329,4465<,;=,yitee8774668897q8779989q090745913<036<719343033376139<25741",
"<;,,ttw08653134383855135137542<3636162298096333435764849655452272>;>2rre0605471366633<252566631163616229809633343576494935343281",
"<;,,eq7544677762224725484662<3373<37,446423<4353423237<336<533181:;,2w082736439<43668470<683,,393<37,446423<4353423237<361452<0<",
">=:>q832545423437163815322124931,48283485423463<4811454:>9<22548,:--,q83317514545134622112<<6961,48283485423463<4811454:0215330>",
"-%-;963335751<3392630<41>2442723420763054665322116324251<q4<4566,;**:9724177112305656343<443453242076305466532211632425195,4467,",
"-%-:9635,49053322116525584,<6q5239234625215,4<424<3154<5364152472=$-,85513295>521>3432648721685339234625215,4<424<3154<536,43552",
"-%->94241232,134<<5<6:6<;1853<<521423,61534<52418132762541213<172=$;<7443,5335<4<,43214,,355421321423,61534<524181327625<4121262",
"-%;>93<221111343>2<<<15>3<1>3224;5391<14>2351335<42<4,545131<1<6,=%=>84,34,,111>5<2,,25,11,,1114;5391<14>2351335<42<4,54<12<<,7>",
"-$;<6324:3:,41<,<<1373625><31<>,3,,3311524<2117352274<313>751116:-%;:93<5:2,121<5,2145515><31<>,3,,3311524<2117352274<31,722<,q,",
":$=,861<4,4<;1244<1:,1,<533<<<>2<1,231334241,246133,78,q7283,6-9<-$-:052:2<4<13<<>211<<2533<<<>2<1,231334241,246133,78,q14424>8;",
"-$-,53<<<;21,42<,1<234422<64;,2>,,4,,3,<2533<,550<<q3:8114<:5;26>=%;>72,,4:,>11>1<<<25122<64;,2>,,4,,3,<2533<,550<<q3:8144:1>261",
"-%;>42<1,3-;1<114:3>;5:7;13,<,;,:3,<,>3,2:71,5,4:75-28<<,2,2<4,9;*&;:41<1<2-<1><&13,;1<6;13,<,;,:3,<,>3,2:71,5,4:75-28<<<:2>517:",
";%->652,<6<,1:,<2,:<:>,61;1<=>1>,:2::2<511,1224,<;<1<21<1:4>1>26,=&->655;>513>:3>,;:,4<41;2<=>1>,:2::2<511,1224,<;<1<21<>1>1:34>",
"%#;,53<>1:43,2,;<=11<3:6,11><1:>>1;,,;1<3:1>,5<<<5,,::3;,<;1*;241*$=<63<:2>4,-:11,<1,>>7,11><1:>>1;,,;1<3:1>,5<<<5,,::3;1<<*>:01",
"@#:>2<>>3->;-1<>31;-:-,>>:31,32-,>1,,<;:11:,,>3:<;,:<<-53-5-:3,9>$$=<3,;21=,-;,,3--;,,>>>:21,42-,>1,,<;:11:,,>3:<;,:<<-5;<;1,<7>",
"&$;;11<>-1;;,-:>>>:-<11;;,1;:53>;,1221<;><,<>:,;-,,>;>2>,<<;,2;5-$&->112,-2:;>12<:<-:12-;,1;:53>;,1221<;><,<>:,;-,,>:>2><1;<2-6;",
"%&*,2<--2--;,:>;2;:6,>11<;-1=3=2:;2,-2*:>;;-<--,>-:<>,1,<>=;>>32;%%=,1,-;<;=<>=<2;:6,>11<;-1=3=2:;2,-2*:>;;-<--,>-:<>,<,,=;,,,3*",
"@%-<1>;,-;<,>:35&,-:>**3;;,-<:<;<,-1>-;>>;<;->3=:-:<>:>;=>:,:-<2;%%=>1,;,-<2;;<:&,-:>**3;-,=<:<;<,-1>-;>>;<;->3=:-:<>:>;<;:;;>4-",
"$%=,41>>1>>;,,,*>,--<>,>=,:<<><-,2=>:;<:,<,;,,,;>::>;;::=>;:>;>2-$%-,41>>1;;41=:>,--<>,>=,:<<><-,2=>:;<:,<,;,,,;>::>;;::;;>;;,4=",
"$$*,51:;;:2<,;>:;=,>==2=;<&5:<-:><>--,>:>,;-<>->:::>::>>><;=>:>4-#$-,5,:;:<<>-;,;=,>==2=;<&5:<-:><>--,>:>,;-<>->:::>::>>;;>;:>3=",
"@#;<4:-;;*-;>-::*<<:1>,:;;->::;>,:>>>=->>;::=><==;:>>>::>1>-;;:5;#$->6;*>-*-::;;*<<:1>,:;;->::;>,:>>>=->>;::=><==;:>>>::1>;-:>3>",
"$$;<6>--=&-=%+*>*#&--;,#=-:*-:,:=:->>*,:>:;>;>>:;>:;;:><>>:-;:;1;@$;,8:-;%-:#$::*#&--;,#=-:*-:,:=:->>*,:>:;>;>>:;>:;::><,;==:;<;",
"*$->7,:;-$$%--:-@<&%<=#,&,*;&;:-%-;*;;1:->=:,:%>:,:=-:>1,--=;>-:;@%;>9>,;-##;=%;@<&%<=#,&,*;&;:-%-;*;;1:->=:,:%>:,:=-:>1---=:;>*",
"$#;>5;:,#%;=&%=*:#@;$&-%&>#:=#-%>$:&-:*,$=;;$;-#%;:;>:-;:=>-&=-,;#&;;6;>>#%-%*;&:#@;$&-%&>#:=#-%>$:&-:*,$=;;$;-#%;:;>:-;->;&=-<-",
"@%=,3>%$-&;=*%=&-%#$$#%=%&=%%=**$$-$-%=$@+#==$%-%+#=*@#;-*%&=-=&-##=,2>$*=&=%*%&-%$$$#%=#&*%%*--$$;#:%-#@@%*&$%=#@#*%@$;&&*=-=**",
"#%-,1;%$@O#++O$+$@@##@@#+@%@+#@#+@#@#@#@o+@@@++@@O+##O+###@@$$$##+%;,<:%@#@#+@@##@@##@@##$#++@@O@+$+%@$+@+@#@++$+++@@++##@#$$#@#",
"#$=>:*@o+oOoOo@+@@@##@@+@@$@+#+###+#+@+#+@#@@@@+@@+++@@OXoooooOOOO$-::*@OOOoooO++@@##@@@@++@#$###@@@#@@@#@@#@++#+#@+@#@OOooOOooO",
"$$;1>=%+OoOooooooOOooOOOOXOooOXO+Oo+OOo+@oo++Oo+O+Ooo+OXooOOoXoO##%;,,-$@O+X+XOoOOOooOOoOOOOoXXO+ooO+oOOoooOOOooo++oo++XooooooOO",
"$$;,>;;*#$###@++@##++@##%@@@##++OXo+#+@##+O@#@+@###@@@@@$$#$$###$$%=>,;=%#$+%##++@+++@#@$#@#@+OOO.OO$O##@@++@##@@##@@@@@####@@##",
";;:>>>>:;>:>::-:;:>>:::>-&&$%%@+@@$&;;>>:,>;;,,->>>,:;;>,:;:>;;;;>>>,>>,:;;;>>:;--;:>>>>-&$$&&#O@+%%:->>,,:--:,>>>,>;-;>:>>:;-;-",
"886566553756453744576446655<>>-=%&*><5555884477456665445866775568097875866566778445776670851,>=$%&-:1366776435665666444557865555",
"wewqre0qqtew0w0twqwreqwrqqq5<<:--,:43w0qwwwwqqww0qwq0wwqrwerewweee00rrqwqewe9wqreqqrrwwr0wq5<>>;->>3300q0weqqww00wwqqwwq9qwwqqqq",
"59,5<8542739<5393336533924446,>;;<<qtutqqqtwqe0qqrwq0rqwq8978088807897078778998979887970895371>;;>18yirqyraueurwqtewqywerqurq9tw",
"72614078923,836197285623343371<:,,6ei7q095we7893<729977477743545647387087423553209385842452271,::17eyr0978q08863<720077492699574",
"34<3<9454213452142547183442371<;:38r066514470765q35,,7<0411<485333<5,0262113542131437182242271,::18rr96614479876025,,7,0568,;171",
"91q1592422533145<327<16244337<:*-15036533924052423777835127631<385645743234543461328<16225448<:=:>40064447248443237788255<<35651",
"78650281853122563<516<0223447,-$;-687<447524326356711324613674,1776494716542<<373,516,9214448,-%;:49743367<252445671132411594,<5",
"323436235312233312361556<2358<;$-:0w63435411247653w116>22167412025<443514312233311261556<3238<-%-,8w63336522457753w116:166342421",
"524<6<62<,517<42428321,211137<;$=<0e283<585<34<2<523738373333413435<616221135432429422<312128<;&-,9w634<7552132<<5237383<<3q7210",
"8341>4:256,6<6143,1339>321,<6<;$>*68643,4<63>43:622,41<<<<2<<3116532:4>2443221353<3329>222,<6,=$-:58455>4162<42,523<41<<4732<324",
"<3213433<<118342<933221452<>9<*%:-875>33>2<11<42<1<<4;4<>32>:13,<3213423<<118342<933221452<>9<*%:-875>33>2<11<42<1<<4;4<2,3113,1",
"1221232331<1372532724727135<7>-=->782112<2;,1<4,25>551613>,,<1,21221232331<1372532724727135<7>-=->782112<2;,1<4,25>55161>4<,,14>",
"1<<1<<2254,,627435137,621,<:6<-+=174<2<<23>23<3,3;6:5<2143:<1>2,1<<1<<2254,,627435137,621,<:6<-+=174<2<<23>23<3,3;6:5<212<,,,<<<",
"2:>1<12142<4,9:34,322<,<<,425>;$-,7,2<1<,,<1<>:>,2<41<224,1:>3><2:>1<12142<4,9:34,322<,<<,425>;$-<7,2<1<,,<1<>:>,3<41<2244-12-2<",
"1:>1112<,2,15>2,1><3<1>1<:127>-%;>6<5<<,,;2>>1;<1>23;8-31<=<<-<<1:>1112<,2,15>2,1><3<1>1<:127>-%;>6<5<<,,;2>>1;<1>23;8-34,3;;3:1",
",:><<<<,,<<3,4;3>1-3<><<<=->8,*@->5743,<6,3:>4:<<,;,131:2>1,>,;1,:><<<<,,<<3,4;3>1-3<><<<=->8,*@->5743,<6,3:>4:<<,;,131:1,:>>>,<",
"><<>>>>,,1<,3:1<<:<:,2=<:>2<7;&*->671<,<2<,-:1>;<,>2>8><13<2<:,>><<>>>>,,1<,3:1<<:<:,2=<:>2<7;&*->671<,<2<,-:1>;<,>2>8><3;,<<:-3",
">33,>>>1,>,:<:-;,1:;4,<<><<:6:%#::92,-11=,::>,3>-:<:1;<:2-:33:-3>33,>>>1,>,:<:-;,1:;4,<<><<:6:%#::92,-11=,::>,3>-:<:1;<:14<2<;<,",
"12*1>*>>=:,=:>,=<<::1><=;-,24-%$->822,>:1:,:,3,:>;,23==<-<;1:2>;12*1>*>>=:,=:>,=<<::1><=;-,24-%$->822,>:1:,:,3,:>;,23==<1:;43<=<",
"=<>--,<-2;;:1:::=:,>,-,;,;:,2-%$->41:>:,*->;>;21:24:<11;>;,>3-1<=<>--,<-2;;:1:::=:,>,-,;,;:,2-%$->41:>:,*->;>;21:24:<11;-,;1-<1:",
";->-:,,,,><<,-:>;::;>->-,:;;3-$$;;712;,,<,>-<=<*->>=>,,-,,<,<=,<;->-:,,,,><<,-:>;::;>->-,:;;3-$$;;712;,,<,>-<=<*->>=>,,--4;>,;,,",
"2=;;<;:2=>1<:-;;<>:->:,;-:;:4;#$-,49,,;>;,,:>=>>,-;:1-->:1,,;:>>2=;;<;:2=>1<:-;;<>:->:,;-:;:4;#$-,49,,;>;,,:>=>>,-;:1--><><<>*3:",
",>:=:-,:;==>,:--:;>;>><<=:::4;#$::52,&:-&---=>=>,,<:,---=:>;>:<:,>:=:-,:;==>,:--:;>;>><<=:::4;#$::52,&:-&---=>=>,,<:,---=,>*>,:>",
"->:;>>,=:>;:;,>>:=>;<,::-;:;1=$%;<29;:-*-=%&*<#&=;>-;*=-;;*,:;;;->:;>>,=:>;:;,>>:=>;<,::-;:;1=$%;<29;:-*-=%&*<#&=;>-;*=-:*=,*,;=",
";=;>>,--;,>:&;:,<-:-,>-=;---,=%$;,581:,%@=***-%;&*-=:*-,-;%,=-&=;=;>>,--;,>:&;:,<-:-,>-=;---,=%$;,581:,%@=***-%;&*-=:*-,;-&;>=%-",
"-%;-=<%-:*$:=&$->-,;;-;,=&=-,-&#-,<5-:,&$;$%;=*&$*=$*&=-&*-$;%;%-%;-=<%-:*$:=&$->-,;;-;,=&=-,-&#-,<5-:,&$;$%;=*&$*=$*&=-%*-$:$<$",
"-**-=$@##**$$*&+$*$#**&:&=;-*%$%;:<3>%$=********%$$$&&&%-*&&*=*%==***&$@$==%$*&@+;&+*-&-%*;;*%$$;:13,&$=&&&****&&%$%&&%%=&%&*&%%",
"#@@#@OO+O##OO#@X@$@O#@O$+#$$#@@#;:,<;#@%@@@@#####@@@#$$#$@@@##@+#@@@@+OoO##++#@oo&#o#$+@#$%%$#$%-:<<-#@$OO+@@###$#@##$##%#@#$$##",
"+@##@+@$@##@@##++#@+#+XOoooOO+@#;:,>*+o+OOOO++++@@+@@#@@#######@#@@@##@+@######@+#@+@+ooooooo+@$-:,:&+oOoooO++@@#@@@@#@@#@@@@@@@",
" oOOooOoOoooOOoOo+Oo+oXoOOOO@#$%;>,;%@OoXXoooooOOoooOOOooooooooOOoooOOOoooooOooOOoOOOooXooXXO@#$;>,-%@OoooooooOOOoooOOOooooOooOO",
"+##@@#@O#++@#@@#@#@@##@#+OO+@##$;>>;&%$################@+@@@@@@##@@@###@@++@@+@##+@#@@##$##$%&&&;>,;&%$@##@@@@@###@####@@###@@##",
",>;=-::-:;-;:;;:;---=--;;;;;::::-::;===*;-----==--------;;;;;;::;;;;;;;;;--;:;;::==-==;;=*=-;;-=-:>;--=*--===------------;;---;-"
};
